<?xml version="1.0" encoding="utf-8"?>
<!-- Generator: Adobe Illustrator 21.1.0, SVG Export Plug-In . SVG Version: 6.00 Build 0)  -->
<svg version="1.0" id="Layer_1" xmlns="http://www.w3.org/2000/svg" xmlns:xlink="http://www.w3.org/1999/xlink" x="0px" y="0px"
	 viewBox="0 0 60 60" enable-background="new 0 0 60 60" xml:space="preserve">
<g id="Lichsugiaodich">
	<g id="Lịch-sử-giao-dịch-Copy">
		<circle id="Oval-5-Copy-3" fill="#CE9F3C" cx="30" cy="30" r="30"/>
		<g id="Page-1" transform="translate(12.000000, 15.000000)">
			<defs>
				<filter id="Adobe_OpacityMaskFilter" filterUnits="userSpaceOnUse" x="0" y="0" width="37" height="30">
					<feColorMatrix  type="matrix" values="1 0 0 0 0  0 1 0 0 0  0 0 1 0 0  0 0 0 1 0"/>
				</filter>
			</defs>
			<mask maskUnits="userSpaceOnUse" x="0" y="0" width="37" height="30" id="mask-2">
				<g filter="url(#Adobe_OpacityMaskFilter)">
					<polygon id="path-1" fill="#FFFFFF" points="0,30 37,30 37,0 0,0 					"/>
				</g>
			</mask>
			<path id="Fill-1" mask="url(#mask-2)" fill="#FFFFFF" d="M28.2,5.5L28.2,5.5c0.3-1.9,1.8-3.7,3.7-4.3l0,0l0,0
				c1,0.2,2,0.7,2.7,1.5c0.7,0.8,1.2,1.7,1.3,2.8l0,0.1H28.2z M23.6,7.9H12.8c-0.3,0-0.6-0.3-0.6-0.6c0-0.3,0.3-0.6,0.6-0.6h10.9
				c0.3,0,0.6,0.3,0.6,0.6C24.2,7.6,24,7.9,23.6,7.9L23.6,7.9z M23.6,13.6H12.8c-0.3,0-0.6-0.3-0.6-0.6c0-0.3,0.3-0.6,0.6-0.6h10.9
				c0.3,0,0.6,0.3,0.6,0.6C24.2,13.3,24,13.6,23.6,13.6L23.6,13.6z M23.6,19.3H12.8c-0.3,0-0.6-0.3-0.6-0.6c0-0.3,0.3-0.6,0.6-0.6
				h10.9c0.3,0,0.6,0.3,0.6,0.6C24.2,19,24,19.3,23.6,19.3L23.6,19.3z M6.1,28.9c-1.2,0-2.4-0.4-3.3-1.3c-0.9-0.8-1.5-1.9-1.6-3.1
				l0-0.1h15l0,0.1c0.2,1.7,1.1,3.2,2.4,4.3l0.1,0.1H6.1z M31.9,0.1L31.9,0.1C31.9,0.1,31.9,0.1,31.9,0.1L31.9,0.1
				C31.5,0,31.2,0,30.9,0h-5.5l0,0H14.1C10.8,0,8,2.7,8,6v12.7l0,0v4.8H0.5C0.2,23.5,0,23.7,0,24c0,3.3,2.7,6,6.1,6h15.8l0,0l0.2,0
				c0,0,0.1,0,0.1,0l0,0l0,0c3.3,0,6-2.7,6-6V6.5h8.3C36.8,6.5,37,6.3,37,6C37,3.1,34.9,0.6,31.9,0.1L31.9,0.1z"/>
		</g>
	</g>
</g>
</svg>
