<?xml version="1.0" encoding="UTF-8"?>
<svg width="30px" height="30px" viewBox="0 0 30 30" version="1.1" xmlns="http://www.w3.org/2000/svg" xmlns:xlink="http://www.w3.org/1999/xlink">
    <title>Group 3@1x</title>
    <defs>
        <filter color-interpolation-filters="auto" id="filter-1">
            <feColorMatrix in="SourceGraphic" type="matrix" values="0 0 0 0 1.000000 0 0 0 0 1.000000 0 0 0 0 1.000000 0 0 0 1.000000 0"></feColorMatrix>
        </filter>
    </defs>
    <g id="🔸-Seller-Flow" stroke="none" stroke-width="1" fill="none" fill-rule="evenodd">
        <g id="Home/-Thêm" transform="translate(-19.000000, -443.000000)">
            <g id="Group-3" transform="translate(19.000000, 443.000000)">
                <circle id="Oval-5-Copy-2" fill="#CE9F3C" fill-rule="nonzero" cx="15" cy="15" r="15"></circle>
                <g id="Group-2" transform="translate(8.000000, 8.000000)">
                    <g filter="url(#filter-1)" id="wallet">
                        <g>
                            <path d="M14.1609195,5.20962895 L14.1609195,3.08 L14.1609195,2.0125 C14.1609195,0.91 13.2045977,0 12.045977,0 L2.24367816,0 C1.02988506,0 0.0183908046,0.9275 0,2.1 L0,11.9875 C0,13.09 0.956321839,14 2.11494253,14 L13.1609195,14 C13.7132043,14 14.1609195,13.5522847 14.1609195,13 L14.1609195,5.20962895 L14.1609195,5.20962895 Z M1.28735632,2.135 C1.28735632,1.6275 1.72873563,1.225 2.24367816,1.225 L12.0275862,1.225 C12.4873563,1.225 12.8551724,1.575 12.8551724,2.0125 L12.8551724,3.0625 L2.24367816,3.0625 C1.72873563,3.0625 1.28735632,2.6425 1.28735632,2.135 Z M16,9.8 L12.9655172,9.8 C12.2114943,9.8 11.5862069,9.205 11.5862069,8.4875 C11.5862069,7.77 12.2114943,7.175 12.9655172,7.175 L16,7.175 L16,9.8 Z" id="Shape" fill="#000000" fill-rule="nonzero"></path>
                            <circle id="Oval" fill="#000000" fill-rule="nonzero" cx="14" cy="8" r="1"></circle>
                        </g>
                    </g>
                    <rect id="Rectangle-Copy-10" stroke="#CE9F3C" fill="#FFFFFF" stroke-linejoin="round" x="7" y="5" width="9" height="6" rx="1"></rect>
                    <circle id="Oval" fill="#CE9F3C" cx="10" cy="8" r="1"></circle>
                </g>
            </g>
        </g>
    </g>
</svg>