<svg xmlns="http://www.w3.org/2000/svg" width="32" height="32" viewBox="0 0 32 32">
    <g fill="none" fill-rule="evenodd">
        <g>
            <g>
                <g>
                    <g transform="translate(-12.000000, -170.000000) translate(0.000000, 158.000000) translate(0.000000, 4.000000) translate(12.000000, 8.000000)">
                        <circle cx="16" cy="16" r="16" fill="#589F39"/>
                        <path fill="#FFF" d="M13.177 6.4h5.646c.436 0 .79.354.79.79 0 .125-.03.249-.086.36l-.31.605c-.17.335-.515.545-.89.545h-4.654c-.375 0-.72-.21-.89-.545l-.31-.605c-.198-.389-.044-.865.345-1.063.11-.057.234-.087.36-.087z"/>
                        <g>
                            <path fill="#FFF" stroke="#589F39" d="M2.63-.5L3.385.912l6.166.47L11.123-.5c1.048-.003 1.422.122 1.804.326.414.222.74.547.961.961.201.376.326.744.326 1.777h0v10.872c0 1.033-.125 1.4-.326 1.777-.222.414-.547.74-.961.96-.376.202-.743.327-1.777.327h0-8.586c-1.033 0-1.4-.125-1.777-.326-.414-.222-.74-.547-.96-.961-.202-.376-.327-.744-.327-1.777h0V2.564c0-1.033.125-1.4.326-1.777.222-.414.547-.74.961-.96.387-.207.765-.333 1.843-.327h0z" transform="translate(9.142857, 8.228571)"/>
                            <g fill="#589F39" transform="translate(9.142857, 8.228571) translate(2.742857, 4.571429)">
                                <rect width="8.229" height="1.371" rx=".686"/>
                                <rect width="8.229" height="1.371" y="3.2" rx=".686"/>
                                <rect width="4.114" height="1.371" y="6.4" rx=".686"/>
                            </g>
                        </g>
                    </g>
                </g>
            </g>
        </g>
    </g>
</svg>
