<svg width="32" height="32" viewBox="0 0 32 32" fill="none" xmlns="http://www.w3.org/2000/svg">
<circle cx="16" cy="16" r="16" fill="#4A90E2"/>
<path d="M21.0002 10.9998H19.3335C19.3335 9.15817 17.8418 7.6665 16.0002 7.6665C14.1585 7.6665 12.6668 9.15817 12.6668 10.9998H11.0002C10.0835 10.9998 9.3335 11.7498 9.3335 12.6665V22.6665C9.3335 23.5832 10.0835 24.3332 11.0002 24.3332H21.0002C21.9168 24.3332 22.6668 23.5832 22.6668 22.6665V12.6665C22.6668 11.7498 21.9168 10.9998 21.0002 10.9998ZM14.3335 14.3332C14.3335 14.7915 13.9585 15.1665 13.5002 15.1665C13.0418 15.1665 12.6668 14.7915 12.6668 14.3332V12.6665H14.3335V14.3332ZM16.0002 9.33317C16.9168 9.33317 17.6668 10.0832 17.6668 10.9998H14.3335C14.3335 10.0832 15.0835 9.33317 16.0002 9.33317ZM19.3335 14.3332C19.3335 14.7915 18.9585 15.1665 18.5002 15.1665C18.0418 15.1665 17.6668 14.7915 17.6668 14.3332V12.6665H19.3335V14.3332Z" fill="white"/>
</svg>
