<svg width="24" height="24" viewBox="0 0 24 24" fill="none" xmlns="http://www.w3.org/2000/svg">
<path fill-rule="evenodd" clip-rule="evenodd" d="M7.75999 7.76121C10.08 5.40121 13.88 5.40121 16.24 7.76121C18.6 10.1212 18.6 13.8812 16.24 16.2412C13.92 18.6012 10.12 18.6012 7.75999 16.2412C5.39999 13.9212 5.39999 10.1212 7.75999 7.76121ZM9.11999 7.20121C8.71999 7.44121 8.35999 7.72121 8.03999 8.04121C7.71999 8.36121 7.43999 8.72121 7.19999 9.12121L8.83999 10.7612C8.99999 10.3212 9.23999 9.96121 9.59999 9.60121C9.95999 9.24121 10.32 9.00121 10.76 8.84121L9.11999 7.20121ZM9.87995 9.8407C8.71995 11.0407 8.71995 12.9207 9.87995 14.1207C11.0399 15.3207 12.9599 15.3207 14.1599 14.1207C15.3199 12.9207 15.3199 11.0007 14.1599 9.8407C12.9599 8.6807 11.0399 8.6807 9.87995 9.8407ZM14.8801 16.8022C15.2801 16.5622 15.6401 16.2822 15.9601 15.9622C16.2801 15.6422 16.5601 15.2822 16.8001 14.8822L15.1601 13.2422C15.0001 13.6822 14.7201 14.0422 14.4001 14.4022C14.0401 14.7222 13.6801 15.0022 13.2401 15.1622L14.8801 16.8022ZM9.11995 16.8022C8.71995 16.5622 8.35995 16.2822 8.03995 15.9622C7.71995 15.6422 7.43995 15.2822 7.19995 14.8822L8.83995 13.2422C8.99995 13.6822 9.23995 14.0422 9.59995 14.4022C9.95995 14.7222 10.32 15.0022 10.76 15.1622L9.11995 16.8022ZM14.88 7.20121C15.28 7.44121 15.64 7.72121 15.96 8.04121C16.28 8.36121 16.56 8.72121 16.8 9.12121L15.16 10.7612C15 10.3212 14.76 9.96121 14.4 9.60121C14.08 9.24121 13.68 9.00121 13.24 8.84121L14.88 7.20121Z" fill="white"/>
<path d="M18 6H6V18H18V6H6V18H18V6Z" fill="white"/>
<circle cx="12" cy="12" r="12" fill="#9B9B9B"/>
<path fill-rule="evenodd" clip-rule="evenodd" d="M7.75999 7.76121C10.08 5.40121 13.88 5.40121 16.24 7.76121C18.6 10.1212 18.6 13.8812 16.24 16.2412C13.92 18.6012 10.12 18.6012 7.75999 16.2412C5.39999 13.9212 5.39999 10.1212 7.75999 7.76121ZM9.11999 7.20121C8.71999 7.44121 8.35999 7.72121 8.03999 8.04121C7.71999 8.36121 7.43999 8.72121 7.19999 9.12121L8.83999 10.7612C8.99999 10.3212 9.23999 9.96121 9.59999 9.60121C9.95999 9.24121 10.32 9.00121 10.76 8.84121L9.11999 7.20121ZM9.87995 9.8407C8.71995 11.0407 8.71995 12.9207 9.87995 14.1207C11.0399 15.3207 12.9599 15.3207 14.1599 14.1207C15.3199 12.9207 15.3199 11.0007 14.1599 9.8407C12.9599 8.6807 11.0399 8.6807 9.87995 9.8407ZM14.8801 16.8022C15.2801 16.5622 15.6401 16.2822 15.9601 15.9622C16.2801 15.6422 16.5601 15.2822 16.8001 14.8822L15.1601 13.2422C15.0001 13.6822 14.7201 14.0422 14.4001 14.4022C14.0401 14.7222 13.6801 15.0022 13.2401 15.1622L14.8801 16.8022ZM9.11995 16.8022C8.71995 16.5622 8.35995 16.2822 8.03995 15.9622C7.71995 15.6422 7.43995 15.2822 7.19995 14.8822L8.83995 13.2422C8.99995 13.6822 9.23995 14.0422 9.59995 14.4022C9.95995 14.7222 10.32 15.0022 10.76 15.1622L9.11995 16.8022ZM14.88 7.20121C15.28 7.44121 15.64 7.72121 15.96 8.04121C16.28 8.36121 16.56 8.72121 16.8 9.12121L15.16 10.7612C15 10.3212 14.76 9.96121 14.4 9.60121C14.08 9.24121 13.68 9.00121 13.24 8.84121L14.88 7.20121Z" fill="white"/>
</svg>
