<svg width="20" height="20" viewBox="0 0 20 20" fill="none" xmlns="http://www.w3.org/2000/svg">
<path d="M10 2.88083C9.655 2.88083 9.375 2.60083 9.375 2.25583V0.625C9.375 0.28 9.655 0 10 0C10.345 0 10.625 0.28 10.625 0.625V2.25583C10.625 2.60083 10.345 2.88083 10 2.88083Z" fill="#FE9900"/>
<path d="M15.4759 5.14908C15.3159 5.14908 15.1559 5.08824 15.0342 4.96574C14.79 4.72158 14.79 4.32574 15.0342 4.08158L16.1875 2.92824C16.4317 2.68408 16.8275 2.68408 17.0717 2.92824C17.3159 3.17241 17.3159 3.56824 17.0717 3.81241L15.9184 4.96574C15.7959 5.08741 15.6359 5.14908 15.4759 5.14908Z" fill="#FE9900"/>
<path d="M19.375 10.625H17.7441C17.3991 10.625 17.1191 10.345 17.1191 10C17.1191 9.655 17.3991 9.375 17.7441 9.375H19.375C19.72 9.375 20 9.655 20 10C20 10.345 19.72 10.625 19.375 10.625Z" fill="#FE9900"/>
<path d="M16.6292 17.2545C16.4692 17.2545 16.3092 17.1937 16.1875 17.0712L15.0342 15.9179C14.79 15.6737 14.79 15.2779 15.0342 15.0337C15.2784 14.7895 15.6742 14.7895 15.9184 15.0337L17.0717 16.187C17.3159 16.4312 17.3159 16.827 17.0717 17.0712C16.9492 17.1937 16.7892 17.2545 16.6292 17.2545Z" fill="#FE9900"/>
<path d="M3.37089 17.2545C3.21089 17.2545 3.05089 17.1937 2.92922 17.0712C2.68505 16.827 2.68505 16.4312 2.92922 16.187L4.08255 15.0337C4.32672 14.7895 4.72255 14.7895 4.96672 15.0337C5.21089 15.2779 5.21089 15.6737 4.96672 15.9179L3.81339 17.0712C3.69089 17.1937 3.53089 17.2545 3.37089 17.2545Z" fill="#FE9900"/>
<path d="M2.25583 10.625H0.625C0.28 10.625 0 10.345 0 10C0 9.655 0.28 9.375 0.625 9.375H2.25583C2.60083 9.375 2.88083 9.655 2.88083 10C2.88083 10.345 2.60083 10.625 2.25583 10.625Z" fill="#FE9900"/>
<path d="M4.52422 5.14908C4.36422 5.14908 4.20422 5.08824 4.08255 4.96574L2.92922 3.81241C2.68505 3.56824 2.68505 3.17241 2.92922 2.92824C3.17339 2.68408 3.56922 2.68408 3.81339 2.92824L4.96672 4.08158C5.21089 4.32574 5.21089 4.72158 4.96672 4.96574C4.84339 5.08741 4.68422 5.14908 4.52422 5.14908Z" fill="#FE9900"/>
<path d="M15.8334 10.0002C15.8334 11.8002 15.0167 13.4668 13.6084 14.5835C13.0334 15.0335 12.6584 15.6252 12.5417 16.2585C12.5251 16.2502 12.5167 16.2502 12.5001 16.2502H7.50005C7.48339 16.2502 7.45839 16.2502 7.44172 16.2585C7.32505 15.6002 6.98339 15.0252 6.49172 14.6585C4.67505 13.2835 3.82505 11.0335 4.29172 8.76683C4.75005 6.55849 6.54172 4.75849 8.75005 4.30016C10.5084 3.92516 12.3084 4.35849 13.6751 5.46683C15.0501 6.58349 15.8334 8.23349 15.8334 10.0002Z" fill="#FFBA00"/>
<path d="M12.5417 16.2583C12.5167 16.4 12.5 16.5417 12.5 16.6917V18.5417C12.5 19.3417 11.8417 20 11.0417 20H8.95832C8.25832 20 7.49998 19.4667 7.49998 18.3V16.825C7.49998 16.6333 7.48332 16.4417 7.44165 16.2583C7.45832 16.25 7.48332 16.25 7.49998 16.25H12.5C12.5167 16.25 12.525 16.25 12.5417 16.2583Z" fill="#607D8B"/>
<path d="M13.125 10.4167C12.78 10.4167 12.5 10.1367 12.5 9.79167C12.5 8.5275 11.4725 7.5 10.2084 7.5C9.86337 7.5 9.58337 7.22 9.58337 6.875C9.58337 6.53 9.86337 6.25 10.2084 6.25C12.1609 6.25 13.75 7.83917 13.75 9.79167C13.75 10.1367 13.47 10.4167 13.125 10.4167Z" fill="#FFE6A3"/>
</svg>
