<svg width="30" height="30" viewBox="0 0 30 30" fill="none" xmlns="http://www.w3.org/2000/svg">
<circle cx="15" cy="15" r="15" fill="#E3A700"/>
<path d="M20.6106 8.57141H9.08321C8.21024 8.57141 7.5 9.28162 7.5 10.1546V19.8377C7.5 20.7106 8.21024 21.4209 9.08321 21.4209H12.8242L14.5425 23.1392C14.6232 23.2199 14.7327 23.2653 14.8469 23.2653C14.961 23.2653 15.0706 23.2199 15.1513 23.1392L16.8696 21.4209H20.6106C21.4836 21.4209 22.1939 20.7106 22.1939 19.8377V10.1546C22.1939 9.28162 21.4836 8.57141 20.6106 8.57141V8.57141ZM18.7836 14.2575L17.1275 15.8717L17.5147 18.1276C17.5217 18.1585 17.5254 18.1907 17.5254 18.2238C17.5254 18.4612 17.3333 18.6537 17.096 18.6543C17.0955 18.6543 17.0949 18.6543 17.0943 18.6543C17.0258 18.6543 16.957 18.638 16.894 18.6049L14.8469 17.5287L12.8 18.6049C12.655 18.6811 12.4792 18.6684 12.3467 18.5721C12.2141 18.4758 12.1477 18.3125 12.1754 18.151L12.5663 15.8717L10.9102 14.2575C10.7928 14.1431 10.7506 13.9721 10.8012 13.8162C10.8519 13.6604 10.9866 13.5468 11.1488 13.5232L13.4373 13.1907L14.4609 11.1168C14.5334 10.9699 14.683 10.8769 14.8469 10.8769C15.0107 10.8769 15.1604 10.9699 15.2329 11.1168L16.2566 13.1907L18.545 13.5232C18.7071 13.5468 18.8419 13.6604 18.8925 13.8162C18.9432 13.9721 18.901 14.1432 18.7836 14.2575Z" fill="white"/>
</svg>
