<svg width="24" height="24" viewBox="0 0 24 24" fill="none" xmlns="http://www.w3.org/2000/svg">
<circle cx="12" cy="12" r="12" fill="#9B9B9B"/>
<path fill-rule="evenodd" clip-rule="evenodd" d="M16.9199 11.0409H17.7999C17.8949 11.0409 17.9648 11.091 18.0493 11.1515C18.0716 11.1675 18.0949 11.1842 18.1199 11.2009V12.7609C18.1199 12.8809 18.0399 12.9609 17.9199 12.9609H17.0399L16.9999 13.1609C16.8799 13.7209 16.6399 14.2009 16.3599 14.6809L16.2399 14.8409L16.8399 15.4409C16.9199 15.5209 16.9199 15.6409 16.8399 15.7209L15.7599 16.8009C15.6799 16.8809 15.5599 16.8809 15.4799 16.8009L14.8799 16.2009L14.7199 16.3209C14.2399 16.6409 13.7199 16.8409 13.1999 16.9609L12.9999 17.0009V17.8809C12.9999 18.0009 12.9199 18.0809 12.7999 18.0809H11.2399C11.1199 18.0809 11.0399 18.0009 11.0399 17.8809V17.0009L10.8399 16.9609C10.2799 16.8409 9.79992 16.6009 9.31992 16.3209L9.15992 16.2009L8.55992 16.8009C8.47992 16.8809 8.35992 16.8809 8.27992 16.8009L7.19992 15.7209C7.11992 15.6409 7.11992 15.5209 7.19992 15.4409L7.79992 14.9209L7.67992 14.7609C7.35992 14.2809 7.15992 13.7609 7.03992 13.2409L6.99992 13.0409H6.11992C5.99992 13.0409 5.91992 12.9609 5.91992 12.8409V11.2809C5.91992 11.1609 5.99992 11.0809 6.11992 11.0809H6.99992L7.03992 10.8809C7.15992 10.3209 7.39992 9.8409 7.67992 9.3609L7.79992 9.2009L7.19992 8.6009C7.11992 8.5209 7.11992 8.4009 7.19992 8.3209L8.27992 7.2009C8.35992 7.1209 8.47992 7.1209 8.55992 7.2009L9.07992 7.8009L9.23992 7.6809C9.71992 7.3609 10.2399 7.1609 10.7599 7.0409L10.9599 7.0009V6.1209C10.9599 6.0009 11.0399 5.9209 11.1599 5.9209H12.7199C12.8399 5.9209 12.9199 6.0009 12.9199 6.1209V7.0009L13.1199 7.0409C13.6799 7.1609 14.1599 7.4009 14.6399 7.6809L14.7999 7.8009L15.3999 7.2009C15.4799 7.1209 15.5999 7.1209 15.6799 7.2009L16.7199 8.2809C16.7999 8.3609 16.7999 8.4809 16.7199 8.5609L16.1199 9.1609L16.2399 9.3209C16.5599 9.8009 16.7599 10.3209 16.8799 10.8409L16.9199 11.0409ZM9.59998 12.0006C9.59998 13.3206 10.68 14.4006 12 14.4006C13.32 14.4006 14.4 13.3206 14.4 12.0006C14.4 10.6806 13.32 9.60059 12 9.60059C10.68 9.60059 9.59998 10.6806 9.59998 12.0006Z" fill="white"/>
</svg>
