<svg width="32" height="32" viewBox="0 0 32 32" fill="none" xmlns="http://www.w3.org/2000/svg">
<circle cx="16" cy="16" r="16" fill="url(#paint0_linear_609_21657)"/>
<path d="M6 20.8559V11.1321H9.48274C10.1059 11.1321 10.6181 11.2441 11.0192 11.4682C11.4204 11.6843 11.7192 12.0044 11.9155 12.4286C12.1119 12.8447 12.21 13.3529 12.21 13.9532C12.21 14.7055 12.0777 15.2817 11.8131 15.6819C11.5485 16.074 11.19 16.3461 10.7376 16.4982C10.2851 16.6503 9.77724 16.7263 9.21386 16.7263H8.29195V20.8559H6ZM8.29195 15.2257H9.06021C9.3419 15.2257 9.5553 15.1777 9.70042 15.0816C9.84553 14.9856 9.93943 14.8415 9.98211 14.6495C10.0333 14.4574 10.0589 14.2133 10.0589 13.9172C10.0589 13.6691 10.0376 13.453 9.99491 13.2689C9.96077 13.0768 9.87114 12.9248 9.72602 12.8127C9.58091 12.7007 9.3547 12.6447 9.0474 12.6447H8.29195V15.2257Z" fill="url(#paint1_linear_609_21657)"/>
<path d="M13.3149 20.8559V11.1321H16.1702C16.8702 11.1321 17.4763 11.2041 17.9884 11.3481C18.5006 11.4922 18.8975 11.7523 19.1792 12.1285C19.4695 12.4966 19.6146 13.0208 19.6146 13.7011C19.6146 14.1012 19.5804 14.4574 19.5121 14.7695C19.4439 15.0816 19.3158 15.3537 19.128 15.5858C18.9488 15.8099 18.6884 15.998 18.347 16.1501L19.7682 20.8559H17.3994L16.2599 16.4982H15.6069V20.8559H13.3149ZM15.6069 15.2617H16.2471C16.5714 15.2617 16.8233 15.2097 17.0025 15.1056C17.1818 14.9936 17.3055 14.8375 17.3738 14.6375C17.4507 14.4294 17.4891 14.1813 17.4891 13.8932C17.4891 13.477 17.408 13.1529 17.2458 12.9208C17.0836 12.6887 16.7848 12.5726 16.3495 12.5726H15.6069V15.2617Z" fill="url(#paint2_linear_609_21657)"/>
<path d="M23.863 21C23.0862 21 22.4716 20.8719 22.0192 20.6158C21.5667 20.3597 21.2424 19.9916 21.046 19.5114C20.8497 19.0312 20.7515 18.459 20.7515 17.7947V14.1813C20.7515 13.509 20.8497 12.9368 21.046 12.4646C21.2424 11.9924 21.5667 11.6323 22.0192 11.3842C22.4716 11.1281 23.0862 11 23.863 11C24.6483 11 25.2672 11.1281 25.7196 11.3842C26.1805 11.6323 26.5092 11.9924 26.7055 12.4646C26.9018 12.9368 27 13.509 27 14.1813V17.7947C27 18.459 26.9018 19.0312 26.7055 19.5114C26.5092 19.9916 26.1805 20.3597 25.7196 20.6158C25.2672 20.8719 24.6483 21 23.863 21ZM23.863 19.4754C24.102 19.4754 24.277 19.4194 24.3879 19.3073C24.4989 19.1953 24.5715 19.0512 24.6056 18.8751C24.6398 18.6991 24.6568 18.519 24.6568 18.3349V13.6531C24.6568 13.461 24.6398 13.2809 24.6056 13.1128C24.5715 12.9368 24.4989 12.7927 24.3879 12.6807C24.277 12.5686 24.102 12.5126 23.863 12.5126C23.641 12.5126 23.4746 12.5686 23.3636 12.6807C23.2526 12.7927 23.1801 12.9368 23.1459 13.1128C23.1118 13.2809 23.0947 13.461 23.0947 13.6531V18.3349C23.0947 18.519 23.1075 18.6991 23.1331 18.8751C23.1673 19.0512 23.2356 19.1953 23.338 19.3073C23.449 19.4194 23.624 19.4754 23.863 19.4754Z" fill="url(#paint3_linear_609_21657)"/>
<defs>
<linearGradient id="paint0_linear_609_21657" x1="16" y1="0" x2="16" y2="32" gradientUnits="userSpaceOnUse">
<stop stop-color="#4C5667"/>
<stop offset="1" stop-color="#0C1423"/>
</linearGradient>
<linearGradient id="paint1_linear_609_21657" x1="5.65282" y1="12.3263" x2="23.6499" y2="21.1796" gradientUnits="userSpaceOnUse">
<stop stop-color="#BF7E2B"/>
<stop offset="1" stop-color="#F2E2A1"/>
</linearGradient>
<linearGradient id="paint2_linear_609_21657" x1="5.65282" y1="12.3263" x2="23.6499" y2="21.1796" gradientUnits="userSpaceOnUse">
<stop stop-color="#BF7E2B"/>
<stop offset="1" stop-color="#F2E2A1"/>
</linearGradient>
<linearGradient id="paint3_linear_609_21657" x1="5.65282" y1="12.3263" x2="23.6499" y2="21.1796" gradientUnits="userSpaceOnUse">
<stop stop-color="#BF7E2B"/>
<stop offset="1" stop-color="#F2E2A1"/>
</linearGradient>
</defs>
</svg>
