<svg width="24" height="24" fill="none" xmlns="http://www.w3.org/2000/svg"><circle cx="12" cy="12" r="12" fill="#4bcffa"/><path d="M6.667 6.667A1.333 1.333 0 0 0 5.333 8v2.667a1.333 1.333 0 0 1 0 2.666V16a1.333 1.333 0 0 0 1.334 1.333h10.666A1.334 1.334 0 0 0 18.667 16v-2.667a1.333 1.333 0 0 1 0-2.666V8a1.334 1.334 0 0 0-1.334-1.333H6.667Zm7.666 2 1 1-5.666 5.666-1-1 5.666-5.666Zm-4.46.026a1.178 1.178 0 0 1 .835 2.015 1.18 1.18 0 1 1-.835-2.015Zm4.254 4.254a1.178 1.178 0 0 1 .834 2.014 1.18 1.18 0 1 1-.834-2.014Z" fill="#fff"/></svg>